<svg xmlns="http://www.w3.org/2000/svg" viewBox="0 0 102.1 102.1" style="enable-background:new 0 0 102.1 102.1" xml:space="preserve"><path d="M93.6 102.1h-85c-4.7 0-8.5-3.8-8.5-8.5v-85C0 3.8 3.8 0 8.5 0h85c4.7 0 8.5 3.8 8.5 8.5v85c.1 4.8-3.7 8.6-8.4 8.6z" style="fill:none"/><linearGradient id="a" gradientUnits="userSpaceOnUse" x1="-4259.492" y1="3962.924" x2="-4259.492" y2="4015.278" gradientTransform="rotate(-90 -4081.218 -150.882)"><stop offset="0" style="stop-color:#0198f1;stop-opacity:.4"/><stop offset=".6" style="stop-color:#0198f1;stop-opacity:.95"/><stop offset="1" style="stop-color:#0198f1"/></linearGradient><path d="M32.6 29.7c18.3 0 52.4-1.1 52.4 19V25.4c0-20-52.4-19.3-52.4-19.3v23.6z" style="opacity:.6;fill:url(#a);enable-background:new"/><path d="M32.6 6.2c-6.4 0-11.7 5.3-11.7 11.7s5.3 11.7 11.7 11.7S44.3 24.4 44.3 18 39 6.2 32.6 6.2zm0 39.8H26v48.8l20 3.7V65.7c16.6-1.7 38.9-6.4 38.9-17.2V25.4s.1 1.7-2.3 5C74.1 42.1 46 46 32.6 46z" style="fill:#0198f1"/></svg>