<svg xmlns="http://www.w3.org/2000/svg" viewBox="0 0 102.1 102.1" style="enable-background:new 0 0 102.1 102.1" xml:space="preserve"><path d="M94.7 102.1H7.5c-4.1 0-7.5-3.3-7.5-7.4V7.4C0 3.3 3.4 0 7.5 0h87.2c4.1 0 7.4 3.3 7.4 7.4v87.2c0 4.2-3.3 7.5-7.4 7.5z" style="fill:none"/><linearGradient id="a" gradientUnits="userSpaceOnUse" x1="24.26" y1="-317.982" x2="78.681" y2="-317.982" gradientTransform="matrix(1 0 0 -1 0 -301.764)"><stop offset="0" style="stop-color:#0198f1"/><stop offset=".3" style="stop-color:#0198f1;stop-opacity:.95"/><stop offset="1" style="stop-color:#0198f1;stop-opacity:.6"/></linearGradient><path d="M78.7 5S36 3.7 30.5 9l-6.2 18.6s.3-1.1 4.1-1.9c3.5-.7 9.4-1.5 21.8-1.5 7.3 0 16.1.3 28 1.1L78.7 5z" style="fill:url(#a)"/><linearGradient id="b" gradientUnits="userSpaceOnUse" x1="43.423" y1="-395.158" x2="26.853" y2="-366.457" gradientTransform="matrix(1 0 0 -1 0 -301.764)"><stop offset="0" style="stop-color:#0198f1"/><stop offset=".4" style="stop-color:#0198f1;stop-opacity:.95"/><stop offset="1" style="stop-color:#0198f1;stop-opacity:.4"/></linearGradient><path d="M39.3 63.3c-8.1 0-10.2 3.2-10.5 3.5-.1.1-.3.4-.3.4-2.1 4.9-2.7 11.5-2.7 15.7v14.3L45.7 85V63.3h-6.4z" style="fill:url(#b)"/><linearGradient id="c" gradientUnits="userSpaceOnUse" x1="28.507" y1="-356.084" x2="81.07" y2="-356.084" gradientTransform="matrix(1 0 0 -1 0 -301.764)"><stop offset="0" style="stop-color:#0198f1"/><stop offset=".3" style="stop-color:#0198f1;stop-opacity:.95"/><stop offset="1" style="stop-color:#0198f1;stop-opacity:.7"/></linearGradient><path d="m75.8 58.6 5.3-17.3s-.9 3.1-28.5 3.5c-13.1 0-24 22.4-24 22.4s1.9-4 10.8-4c13.4.1 33.3.2 36.4-4.6z" style="fill:url(#c)"/><circle cx="78.7" cy="15.2" r="10.2" style="fill:#0198f1"/><linearGradient id="d" gradientUnits="userSpaceOnUse" x1="24.207" y1="-336.506" x2="81.087" y2="-336.506" gradientTransform="matrix(1 0 0 -1 0 -301.764)"><stop offset="0" style="stop-color:#0198f1;stop-opacity:.5"/><stop offset="1" style="stop-color:#0198f1;stop-opacity:5.000000e-02"/></linearGradient><path d="M48 44.8c.3.1 1.1.5 1.1.5 1.2-.3 2.3-.5 3.5-.5 27.3-.3 28.7-3.5 28.7-3.5-.1-.3-1.2-.8-6.9-2.5-7.6-2.4-16.9-8.9-24.2-14.7-23.1 0-25.5 2.5-25.9 3.3 0 .1-.3.9.4 1.9C31 36.1 40.9 41.6 48 44.8z" style="fill:url(#d)"/></svg>